<svg width="34" height="50" viewBox="0 0 34 50" fill="none" xmlns="http://www.w3.org/2000/svg">
<path d="M33.1186 40.512C32.7141 40.512 32.3861 40.8399 32.3861 41.2444V48.1306C32.3861 48.3535 32.2047 48.535 31.9817 48.535H28.0445V34.1114C28.0445 33.7069 27.7166 33.379 27.3121 33.379C26.9076 33.379 26.5797 33.7069 26.5797 34.1114V48.5351H18.6515L20.9506 46.0058C21.2018 45.7294 21.3202 45.3357 21.2674 44.9523C21.2664 44.9449 21.2652 44.9375 21.264 44.9301L19.0742 31.9938L19.6642 31.1058C19.9903 31.3374 20.2416 31.5604 20.7128 31.5604C21.1921 31.5604 21.6402 31.2922 21.8608 30.8506V30.8505L24.1703 26.2216L29.4317 28.2592C29.622 28.3408 32.3859 29.5855 32.3859 32.8723V37.8264C32.3858 38.2308 32.7138 38.5588 33.1184 38.5588C33.5229 38.5588 33.8508 38.2309 33.8508 37.8264V32.8723C33.8508 28.5418 30.1429 26.9677 29.9851 26.9027C29.9805 26.9008 29.9758 26.8989 29.9711 26.8972L21.2145 23.506V21.4522C22.6053 20.3706 23.5696 18.7672 23.8117 16.9379C24.5052 16.8891 25.1486 16.6301 25.6741 16.1782C26.3604 15.5881 26.7541 14.7292 26.7541 13.8222C26.7541 13.0694 26.4825 12.3507 25.9985 11.7906V9.07744C25.9984 4.07217 21.9264 0 16.9211 0C11.9158 0 7.84376 4.07217 7.84376 9.07744V11.8617C7.3546 12.4161 7.08858 13.0985 7.08858 13.8221C7.08858 14.7294 7.48214 15.5882 8.16856 16.1784C8.69366 16.6301 9.33673 16.8888 10.03 16.9377C10.274 18.8013 11.2665 20.4645 12.7758 21.5606V23.506L4.02862 26.8971C4.02403 26.8988 4.01944 26.9007 4.01485 26.9025C3.85694 26.9675 0.149128 28.5416 0.149128 32.8721V48.1304C0.149128 49.1611 0.987702 49.9997 2.01846 49.9997H8.99669C9.40118 49.9997 9.72911 49.6718 9.72911 49.2673C9.72911 48.8628 9.40118 48.5349 8.99669 48.5349H7.42081V34.1114C7.42081 33.7069 7.09288 33.379 6.68839 33.379C6.28389 33.379 5.95596 33.7069 5.95596 34.1114V48.5351H2.01856C1.79561 48.5351 1.61417 48.3536 1.61417 48.1307V32.8722C1.61417 29.5744 4.39669 28.3325 4.56759 28.2595L9.82481 26.2214L12.1346 30.8505C12.3556 31.2932 12.8043 31.5604 13.2826 31.5604C13.7515 31.5604 14.0003 31.3408 14.3313 31.1058L14.9212 31.9938L12.7316 44.9302C12.7304 44.9375 12.7293 44.9448 12.7282 44.9522C12.6753 45.3354 12.7938 45.7293 13.045 46.0059L15.3442 48.5352H12.4149C12.0105 48.5352 11.6825 48.8631 11.6825 49.2676C11.6825 49.6721 12.0105 50 12.4149 50H31.9818C33.0126 50 33.8512 49.1613 33.8512 48.1307V41.2445C33.851 40.8399 33.5231 40.512 33.1186 40.512ZM22.7983 25.6903L20.6451 30.0058C20.5916 29.9678 19.4505 29.157 18.0556 28.1665C18.6608 27.4193 17.9527 28.2934 20.7152 24.8836L22.7983 25.6903ZM18.4691 30.2571L17.9107 31.0977H16.0842L15.5258 30.2571L16.9975 29.2119L18.4691 30.2571ZM14.2405 23.7423V22.3716C15.1304 22.7303 16.0814 22.8966 17.0101 22.8966C17.9703 22.8966 18.912 22.6919 19.7495 22.3257V23.7482L16.9975 27.1452L14.2405 23.7423ZM25.2892 13.8222C25.2891 14.302 25.0813 14.756 24.719 15.0676C24.4794 15.2736 24.1901 15.4054 23.8732 15.4569V12.1877C24.715 12.3244 25.2892 13.0227 25.2892 13.8222ZM9.96944 15.4569C9.11807 15.3188 8.55343 14.6148 8.55343 13.8221C8.55343 13.0391 9.20255 12.4018 9.96944 12.2245V15.4569ZM10.0088 10.732C9.7755 10.7588 9.50811 10.822 9.3088 10.8897V9.07744C9.3088 4.87988 12.7236 1.46494 16.9212 1.46494C21.1188 1.46494 24.5336 4.87988 24.5336 9.07744V10.8395C24.3207 10.7747 24.0999 10.7319 23.8733 10.7118C23.8733 10.0051 23.8794 10.1414 21.5674 7.65576C21.1422 7.19893 20.4389 7.10322 19.9036 7.45293C17.3519 9.11982 14.2391 9.95723 11.367 9.75098C10.737 9.70381 10.1632 10.1188 10.0088 10.732ZM11.4344 16.0336V11.4641V11.2233C14.596 11.4085 17.9108 10.4692 20.5886 8.7543C21.6489 9.89277 22.2232 10.4899 22.4083 10.7171C22.4083 11.2917 22.4083 15.3758 22.4083 16.0335C22.4083 19.0068 19.9839 21.4315 17.0102 21.4315C13.6709 21.4316 11.4344 18.8412 11.4344 16.0336ZM13.3499 30.0058L11.1967 25.6903L13.2761 24.885L15.9363 28.1687C14.5835 29.1293 13.4727 29.9186 13.3499 30.0058ZM14.1902 45.0881L16.3103 32.5624H17.6844L19.8044 45.0881L16.9974 48.1763L14.1902 45.0881Z" fill="black"/>
</svg>
