<svg width="44" height="50" viewBox="0 0 44 50" fill="none" xmlns="http://www.w3.org/2000/svg">
<path d="M42.5463 8.63389C35.6669 6.74894 28.7471 3.81388 22.5349 0.146118C22.2049 -0.048706 21.7955 -0.048706 21.4656 0.146118C15.0742 3.91926 8.5283 6.69552 1.45361 8.63389C0.996575 8.75899 0.679779 9.17442 0.679779 9.64835V20.395C0.679779 31.4617 5.78514 38.7871 10.0681 42.9834C14.6791 47.5015 20.0501 50 22.0002 50C23.9501 50 29.3212 47.5015 33.9322 42.9834C38.2151 38.7872 43.3201 31.4618 43.3201 20.395V9.64825C43.3201 9.17442 43.0033 8.75899 42.5463 8.63389ZM41.2166 20.3949C41.2166 30.7311 36.4548 37.5666 32.4599 41.4808C27.9256 45.9237 23.0777 47.8963 22.0002 47.8963C20.9228 47.8963 16.0746 45.9237 11.5402 41.4808C7.54539 37.5665 2.78339 30.7311 2.78339 20.3949V10.4467C9.5488 8.52579 15.8494 5.84503 22.0004 2.27053C27.9979 5.75021 34.6128 8.56427 41.2166 10.4463V20.3949Z" fill="black"/>
<path d="M12.6775 10.329C12.4646 9.78847 11.854 9.52295 11.3134 9.73594C9.43446 10.4763 7.50594 11.1577 5.58143 11.7614C5.14286 11.8991 4.84442 12.3054 4.84442 12.7649V16.8265C4.84442 17.4074 5.31542 17.8783 5.89618 17.8783C6.47694 17.8783 6.94793 17.4074 6.94793 16.8265V13.5336C8.6744 12.975 10.399 12.3571 12.0845 11.693C12.625 11.4802 12.8905 10.8695 12.6775 10.329Z" fill="black"/>
<path d="M14.6754 10.5285C14.8166 10.5285 14.9598 10.5001 15.0972 10.4401L15.1166 10.4317C15.6487 10.1985 15.8883 9.57911 15.6551 9.04718C15.4217 8.51505 14.7988 8.27433 14.2672 8.50734L14.2503 8.51466C13.7178 8.74718 13.4774 9.36612 13.7099 9.89835C13.8825 10.2935 14.2697 10.5285 14.6754 10.5285Z" fill="black"/>
<path d="M34.5314 33.9144C34.0453 33.5967 33.3936 33.7333 33.0755 34.2195C32.2088 35.5461 31.192 36.8164 30.053 37.9948C29.1163 38.9638 28.1012 39.8669 27.0361 40.6789C26.5743 41.031 26.4854 41.691 26.8374 42.153C27.0446 42.4244 27.3578 42.5672 27.6746 42.5672C27.897 42.5672 28.1211 42.497 28.3116 42.3516C29.4605 41.4756 30.5552 40.5016 31.5652 39.4569C32.7967 38.1831 33.8973 36.8081 34.8366 35.3701C35.1544 34.8838 35.0176 34.232 34.5314 33.9144Z" fill="black"/>
<path d="M24.5935 42.3283L24.5331 42.3639C24.0305 42.655 23.8587 43.2983 24.1498 43.801C24.3448 44.1379 24.6978 44.326 25.061 44.326C25.2397 44.326 25.4211 44.2804 25.5868 44.1842L25.6565 44.1433C26.1577 43.8497 26.3261 43.2055 26.0325 42.7042C25.7388 42.2031 25.0945 42.0351 24.5935 42.3283Z" fill="black"/>
<path d="M14.8309 22.8534C14.1851 22.2075 13.3262 21.852 12.4128 21.852C11.4993 21.852 10.6403 22.2076 9.99422 22.8534C8.66092 24.187 8.66092 26.3569 9.99422 27.6904L16.2048 33.9007C16.8507 34.5464 17.7095 34.902 18.6231 34.902C19.5367 34.902 20.3956 34.5464 21.0416 33.9005L34.0065 20.9355C35.3397 19.6016 35.3397 17.432 34.0063 16.0989C33.3604 15.453 32.5015 15.0975 31.5878 15.0975C30.6743 15.0975 29.8154 15.4531 29.1694 16.0989L18.623 26.6453L14.8309 22.8534ZM30.6569 17.5864C30.9054 17.3379 31.2362 17.201 31.5879 17.201C31.9399 17.201 32.2704 17.3379 32.5191 17.5864C33.0323 18.0996 33.0323 18.9349 32.5189 19.4483L19.5542 32.4131C19.3056 32.6617 18.9749 32.7985 18.6231 32.7985C18.2714 32.7985 17.9406 32.6617 17.692 32.4131L11.4816 26.203C10.9682 25.6896 10.9682 24.8543 11.4814 24.3411C11.7301 24.0925 12.0608 23.9555 12.4127 23.9555C12.7645 23.9555 13.0951 24.0923 13.3436 24.3409L17.8793 28.8766C18.0766 29.0738 18.344 29.1846 18.623 29.1846C18.902 29.1846 19.1694 29.0739 19.3666 28.8766L30.6569 17.5864Z" fill="black"/>
</svg>
