<svg width="50" height="50" viewBox="0 0 50 50" fill="none" xmlns="http://www.w3.org/2000/svg">
<path d="M46.7742 24.1935H45.1613V48.3871H42.7419V31.4516H41.129V48.3871H38.7097V24.1935H37.0968V48.3871H35.1759L33.563 45.1613H28.2258V21.7742H26.6129V45.1613H24.1935V28.2258H22.5806V45.1613H20.1613V20.0219L16.1613 8.82175C16.1405 8.76229 16.129 8.69849 16.129 8.63313C16.129 8.31929 16.3838 8.06452 16.6976 8.06452H16.8918C17.1087 8.06452 17.3033 8.18462 17.4001 8.37914L20.1613 13.8999V14.5161C20.1613 16.7394 21.9703 18.5484 24.1935 18.5484C24.7677 18.5484 25.3115 18.4243 25.8065 18.2066V19.0942L29.3315 20.5039C29.6395 20.6275 29.8387 20.9217 29.8387 21.2532V29.8387H31.4516V21.2532C31.4516 20.2589 30.8547 19.3765 29.9305 19.0063L27.4194 18.0026V16.9107C27.9194 16.2389 28.2258 15.4155 28.2258 14.5161V12.9032C28.2258 10.68 26.4168 8.87097 24.1935 8.87097C22.6047 8.87097 21.241 9.80225 20.5846 11.1403L18.8429 7.65814C18.4791 6.92729 17.7498 6.47406 16.9355 6.45713V0H10.4839V4.83871H15.3226V6.95407C14.8347 7.35415 14.5161 7.95387 14.5161 8.63313C14.5161 8.88554 14.5598 9.13401 14.6437 9.36712L18.5484 20.3007V45.1613H16.437L14.8241 48.3871H12.9032V24.1935H11.2903V48.3871H8.87097V33.0645H7.25806V48.3871H4.83871V24.1935H3.22581V48.3871H0V50H50V48.3871H46.7742V24.1935ZM21.7742 12.9032C21.7742 11.5695 22.8598 10.4839 24.1935 10.4839C25.5273 10.4839 26.6129 11.5695 26.6129 12.9032V14.5161C26.6129 15.8498 25.5273 16.9355 24.1935 16.9355C22.8598 16.9355 21.7742 15.8498 21.7742 14.5161V12.9032ZM12.0968 3.22581V1.6129H15.3226V3.22581H12.0968ZM17.434 46.7742H32.566L33.3724 48.3871H16.6276L17.434 46.7742Z" fill="black"/>
</svg>
