<?xml version="1.0" standalone="no"?>
<!DOCTYPE svg PUBLIC "-//W3C//DTD SVG 20010904//EN"
 "http://www.w3.org/TR/2001/REC-SVG-20010904/DTD/svg10.dtd">
<svg version="1.0" xmlns="http://www.w3.org/2000/svg"
 width="400.000000pt" height="561.000000pt" viewBox="0 0 400.000000 561.000000"
 preserveAspectRatio="xMidYMid meet">

<g transform="translate(0.000000,561.000000) scale(0.100000,-0.100000)"
fill="#000000" stroke="none">
<path d="M1570 5401 c-46 -10 -110 -43 -136 -73 -38 -42 -74 -102 -74 -124 0
-12 -9 -33 -20 -47 -11 -14 -23 -40 -26 -59 -4 -18 -11 -39 -17 -46 -5 -6 -11
-47 -12 -90 -1 -42 -6 -115 -10 -162 -6 -70 -3 -101 14 -173 18 -77 45 -147
55 -147 2 0 -6 31 -19 68 -36 105 -52 215 -37 255 7 19 12 41 12 50 0 21 19
32 32 19 7 -7 22 -3 47 11 22 13 32 16 25 7 -18 -24 -64 -175 -64 -209 0 -43
32 -40 37 4 2 17 5 46 8 65 2 19 4 41 5 49 0 11 4 11 19 -3 17 -16 20 -16 52
3 20 12 63 23 104 27 39 4 78 13 87 21 15 14 20 10 48 -36 18 -28 38 -51 46
-51 34 0 3 58 -70 129 -54 53 -79 63 -57 23 9 -18 6 -19 -62 -21 -46 -1 -86
-8 -109 -20 -44 -22 -41 -11 20 57 31 35 46 44 75 45 41 2 45 8 21 28 -12 10
-15 25 -11 56 4 42 -4 56 -20 30 -12 -19 -69 -40 -93 -34 -33 8 -24 -20 10
-32 19 -6 30 -17 30 -28 -1 -22 -24 -55 -33 -46 -4 3 -13 0 -22 -7 -8 -7 -15
-9 -15 -5 0 4 -18 -8 -40 -25 -22 -17 -40 -27 -40 -20 0 19 47 59 77 65 54 12
56 14 43 30 -7 8 -28 15 -47 15 -39 0 -78 -35 -92 -84 -8 -27 -9 -24 -10 28
-1 52 2 62 27 85 16 14 37 31 48 37 10 7 15 15 11 20 -5 5 -22 1 -39 -9 l-30
-17 6 27 c10 39 70 128 117 173 21 20 62 50 91 66 46 25 62 29 128 28 84 -2
175 -27 246 -69 45 -26 45 -27 25 -42 -12 -8 -21 -18 -21 -23 0 -18 35 -51 67
-65 37 -16 49 -56 40 -133 -6 -51 23 -132 47 -132 21 0 46 -34 46 -62 0 -28
28 -58 53 -58 24 0 21 14 -5 25 -16 7 -23 19 -24 40 -1 17 -4 37 -8 46 -5 10
-2 19 8 22 21 8 30 -10 27 -55 -2 -49 13 -49 27 1 16 51 15 76 -3 91 -20 16
-62 5 -70 -19 -8 -27 -35 -35 -35 -11 0 48 81 80 110 45 7 -8 18 -15 24 -15 6
0 2 7 -8 15 -11 8 -16 15 -11 15 5 0 2 6 -7 13 -9 7 -18 34 -21 68 -7 73 -48
157 -106 217 -41 42 -58 51 -161 84 -172 56 -242 66 -330 49z"/>
<path d="M1623 5173 c-32 -9 -53 -21 -53 -30 0 -11 6 -12 23 -6 29 11 154 10
190 -1 40 -12 34 8 -9 29 -51 24 -92 26 -151 8z"/>
<path d="M1596 5098 c-36 -46 -20 -56 20 -13 38 42 40 45 20 45 -8 0 -26 -14
-40 -32z"/>
<path d="M1645 5078 c-27 -15 -34 -27 -32 -57 2 -25 5 -26 72 -29 38 -2 80 0
92 3 27 6 31 27 6 24 -10 -1 -49 -1 -87 0 -53 1 -67 4 -59 12 20 20 112 30
142 15 31 -16 131 -21 131 -7 0 13 -39 25 -68 22 -13 -1 -34 5 -47 13 -28 19
-120 21 -150 4z"/>
<path d="M2216 4903 c3 -16 -2 -48 -10 -72 -9 -24 -14 -47 -11 -51 18 -28 -28
-53 -53 -28 -6 6 -15 9 -18 5 -10 -10 16 -37 37 -37 24 0 29 -9 31 -69 2 -48
0 -54 -37 -90 -32 -32 -53 -42 -109 -54 l-69 -16 6 57 5 57 -58 28 c-48 24
-61 27 -77 17 -18 -12 -71 -94 -72 -113 -1 -16 -36 -67 -50 -72 -10 -4 -22 2
-31 17 -41 63 -82 98 -115 98 -55 0 -136 -86 -121 -127 4 -9 -6 -26 -24 -43
l-30 -28 -26 44 c-15 25 -28 43 -31 40 -7 -7 25 -64 50 -89 12 -12 22 -24 22
-27 1 -10 80 -110 87 -110 4 0 8 -8 8 -18 0 -14 -7 -17 -40 -14 -48 5 -50 -5
-10 -43 27 -26 33 -42 20 -55 -17 -16 -60 -92 -60 -105 0 -8 -5 -15 -10 -15
-6 0 -29 -17 -50 -37 -22 -21 -66 -60 -96 -88 -31 -27 -72 -65 -91 -82 -19
-18 -39 -33 -43 -33 -5 0 -17 -11 -28 -25 -11 -14 -25 -25 -30 -25 -11 0 -54
-55 -48 -61 2 -2 -2 -10 -10 -17 -8 -7 -14 -10 -14 -7 0 14 -103 -61 -115 -85
-17 -34 -87 -80 -93 -62 -7 23 -18 12 -15 -15 3 -24 -57 -248 -82 -305 -4 -12
-3 -18 5 -18 6 0 17 14 23 30 6 17 14 30 17 30 5 -1 46 -68 95 -155 13 -22 26
-56 29 -77 l7 -36 -105 -7 c-57 -4 -135 -4 -172 0 -69 6 -137 31 -141 50 -1 6
-31 85 -67 178 -35 92 -70 190 -76 218 -13 54 -10 150 9 339 21 197 29 480 14
529 -7 24 -13 67 -13 94 0 47 3 54 45 94 25 24 53 43 63 43 21 0 82 -43 95
-66 6 -11 5 -19 -4 -25 -21 -13 -39 -11 -39 6 0 8 -4 15 -10 15 -5 0 -10 -9
-10 -19 0 -29 -18 -35 -46 -16 -27 18 -46 13 -26 -7 21 -21 13 -30 -18 -23
-48 11 -35 -10 30 -44 59 -32 94 -68 101 -106 4 -19 16 -24 21 -7 3 9 24 35
71 88 41 46 86 66 147 67 30 1 41 6 49 24 12 27 9 28 -23 7 -23 -14 -25 -14
-40 8 -9 12 -16 30 -16 39 0 21 47 34 66 18 8 -7 17 -9 20 -6 11 10 -7 27 -28
27 -14 0 -18 5 -14 16 8 22 -24 74 -49 79 -11 2 -43 9 -70 15 -70 15 -162 -14
-225 -70 -25 -23 -57 -52 -71 -65 -35 -31 -41 -81 -21 -174 14 -64 14 -102 4
-300 -6 -124 -19 -282 -28 -351 -22 -177 -16 -209 95 -500 54 -139 67 -164 82
-154 5 3 9 1 9 -5 0 -11 60 -47 73 -43 4 1 7 -3 7 -9 0 -5 5 -7 10 -4 6 3 10
2 10 -4 0 -9 14 -15 60 -26 3 -1 14 -6 25 -11 11 -5 57 -9 102 -9 l82 0 -6
-45 c-3 -25 -10 -47 -15 -48 -4 -2 -6 -8 -2 -13 3 -5 1 -9 -5 -9 -13 0 -26
-43 -60 -205 -37 -180 -45 -256 -32 -335 6 -35 8 -66 6 -69 -3 -2 -123 -30
-268 -60 l-262 -56 -3 -834 c-2 -665 0 -832 10 -829 7 3 788 171 1735 374
l1723 369 0 831 0 832 -37 -8 c-21 -5 -145 -32 -276 -60 -131 -28 -241 -50
-243 -48 -2 3 10 65 26 139 16 74 30 144 30 157 0 12 6 22 13 22 8 0 26 10 40
23 22 19 27 31 27 70 0 29 8 64 21 89 15 30 20 53 16 87 -3 25 -16 170 -30
321 -14 151 -31 298 -37 325 -18 82 -42 155 -52 155 -5 0 -7 4 -4 8 9 14 -40
106 -70 133 -16 14 -46 36 -66 49 -20 14 -34 28 -32 32 2 4 -12 19 -32 35 -19
15 -61 54 -91 85 -31 32 -60 55 -64 52 -5 -3 -9 -1 -9 5 0 15 -87 63 -140 77
-35 9 -67 9 -127 1 -76 -10 -135 -5 -131 11 1 4 -10 26 -26 50 -32 47 -51 52
-112 26 -35 -15 -39 -15 -50 0 -17 24 -25 143 -13 211 18 106 22 155 10 155
-6 0 -8 -11 -5 -27z m-6 -347 c0 -3 -4 -8 -10 -11 -5 -3 -10 -1 -10 4 0 6 5
11 10 11 6 0 10 -2 10 -4z m-1560 -36 c15 -15 20 -33 20 -75 0 -48 -2 -55 -20
-55 -16 0 -20 7 -20 34 0 37 -29 81 -60 91 -30 10 -14 25 26 25 21 0 42 -8 54
-20z m74 -11 c33 -26 34 -57 2 -65 -19 -4 -26 -14 -29 -37 -2 -18 -5 -4 -5 30
-1 34 -5 68 -8 77 -8 22 8 20 40 -5z m-131 -41 c11 -13 17 -34 15 -52 -4 -44
-37 -46 -63 -4 -11 18 -37 42 -59 54 l-39 22 29 15 c25 13 33 13 64 1 19 -8
43 -24 53 -36z m2425 -1267 l83 -43 -39 -38 c-59 -58 -71 -94 -88 -253 -8 -78
-16 -149 -19 -157 -2 -8 -7 -40 -10 -70 -4 -30 -10 -58 -13 -61 -9 -8 -443
-101 -448 -96 -5 5 40 212 66 302 11 39 25 103 31 143 7 47 24 100 47 145 20
40 37 78 39 86 11 75 48 93 178 88 83 -3 97 -7 173 -46z m172 -1045 l0 -205
-42 -9 c-24 -5 -46 -7 -50 -5 -8 4 -8 386 0 400 7 10 35 19 75 22 16 1 17 -15
17 -203z m-180 117 c-10 -32 -42 -131 -70 -220 -28 -89 -54 -164 -58 -167 -4
-2 -23 -7 -42 -11 l-35 -6 -44 122 -45 122 -46 -139 -47 -139 -36 -9 c-20 -5
-40 -7 -43 -3 -4 3 -37 88 -74 189 -47 127 -64 185 -56 190 7 4 29 8 50 10
l39 3 41 -124 42 -124 45 146 c46 152 49 157 106 157 18 0 27 -17 63 -120 24
-66 45 -118 47 -116 3 3 22 64 43 136 21 72 40 134 44 137 5 5 60 20 83 22 8
1 6 -17 -7 -56z m-747 -137 c148 -63 113 -291 -58 -378 -23 -12 -205 -58 -228
-58 -3 0 -4 93 -3 207 l1 207 80 17 c101 21 167 23 208 5z m-751 -166 c26 -27
29 -35 23 -67 -4 -21 -16 -50 -27 -65 -16 -23 -17 -28 -4 -28 23 0 56 -49 56
-84 0 -44 -33 -92 -79 -115 -22 -11 -84 -30 -138 -41 -54 -12 -106 -24 -115
-26 -17 -5 -18 9 -18 203 l0 209 98 21 c141 30 167 29 204 -7z m-620 -101 c45
-12 68 -49 68 -109 0 -48 -11 -73 -51 -115 l-29 -31 45 -57 c25 -31 45 -59 45
-61 0 -5 -102 -28 -105 -24 -1 2 -19 26 -40 53 -22 28 -40 52 -42 54 -1 2 -18
0 -38 -3 l-35 -7 0 -64 0 -64 -37 -10 c-21 -6 -41 -11 -46 -11 -4 0 -6 93 -5
207 l3 207 100 22 c123 26 122 26 167 13z m823 -175 c-2 -25 -5 -47 -7 -49 -2
-1 -22 -6 -46 -10 l-43 -7 3 48 c3 45 5 49 33 55 62 13 63 13 60 -37z m1475
-102 c0 -173 -13 -225 -70 -282 -63 -63 -192 -90 -260 -55 -54 28 -64 63 -68
238 -2 88 0 163 4 167 5 5 29 11 54 15 l45 7 0 -151 c0 -142 1 -152 22 -173
40 -39 124 -20 156 36 7 13 14 82 17 176 5 154 5 154 30 161 14 4 35 7 48 8
22 1 22 0 22 -147z m-478 6 c-16 -29 -55 -98 -86 -154 l-56 -100 0 -91 0 -91
-32 -7 c-18 -4 -41 -9 -50 -11 -16 -5 -18 4 -18 83 l0 88 -89 121 -89 122 60
12 c41 9 62 10 66 3 41 -65 97 -141 102 -137 3 3 28 47 55 97 48 88 52 92 95
104 73 19 74 18 42 -39z m-1584 -23 c4 -46 -1 -52 -55 -61 l-43 -7 0 47 c0 42
2 46 28 52 15 3 32 7 37 9 22 7 30 -3 33 -40z m1109 -250 c1 -116 -1 -215 -5
-221 -4 -6 -28 -16 -54 -22 l-48 -10 0 90 c0 88 0 90 -22 85 -13 -3 -53 -11
-90 -18 l-68 -12 0 -94 c0 -68 -3 -93 -12 -93 -7 0 -30 -3 -50 -6 l-38 -7 0
226 0 225 36 6 c19 4 42 10 50 13 11 4 14 -11 14 -86 0 -90 0 -91 23 -86 12 3
51 11 87 18 l65 13 3 91 c3 91 3 92 30 96 15 2 38 4 52 3 l25 -1 2 -210z
m-624 48 c8 -21 38 -87 67 -148 96 -203 102 -218 88 -227 -7 -4 -18 -8 -24 -8
-6 0 -24 -3 -40 -6 -27 -5 -30 -2 -48 41 -15 39 -22 46 -40 41 -11 -2 -50 -10
-86 -17 -36 -6 -70 -16 -77 -21 -7 -5 -19 -31 -28 -58 -15 -46 -18 -48 -65
-57 -36 -7 -50 -7 -49 1 0 6 42 117 92 246 99 251 96 246 168 249 22 1 30 -6
42 -36z m-417 -269 c-42 -131 -81 -241 -88 -246 -7 -4 -23 -8 -35 -9 -13 -1
-28 -2 -34 -3 -6 -1 -31 53 -56 119 -24 66 -48 123 -52 127 -4 4 -28 -60 -54
-142 -50 -159 -48 -155 -115 -163 -21 -2 -29 13 -93 188 -93 254 -90 232 -35
240 25 4 49 8 52 9 4 0 28 -62 54 -139 l46 -139 26 84 c15 47 37 120 50 162
23 77 23 78 63 86 22 5 43 6 47 3 3 -3 25 -60 48 -126 23 -66 45 -126 49 -132
4 -7 27 58 51 145 l45 157 50 11 c28 6 51 10 53 9 2 -2 -31 -110 -72 -241z"/>
<path d="M2113 2058 l-43 -9 0 -124 0 -123 41 9 c84 19 133 61 145 125 17 93
-41 142 -143 122z"/>
<path d="M1365 1905 c-5 -2 -22 -6 -37 -9 -25 -6 -28 -11 -28 -47 l0 -40 38 7
c20 4 52 13 70 20 28 11 33 18 30 41 -2 23 -8 28 -33 30 -16 1 -34 0 -40 -2z"/>
<path d="M1343 1738 c-43 -9 -43 -9 -43 -55 0 -32 4 -44 13 -40 7 2 38 10 69
16 63 13 93 39 83 70 -7 24 -46 26 -122 9z"/>
<path d="M758 1778 l-48 -10 0 -58 0 -57 43 8 c23 4 48 8 55 9 20 0 62 47 62
69 0 24 -26 51 -48 50 -9 -1 -38 -6 -64 -11z"/>
<path d="M1516 1210 c-16 -39 -26 -73 -24 -75 2 -2 27 2 55 8 l52 12 -28 63
-28 62 -27 -70z"/>
<path d="M1493 4793 c-26 -5 -33 -13 -68 -81 -26 -51 -27 -53 -10 -72 23 -25
57 -26 79 -1 12 13 38 21 84 26 72 8 106 20 97 36 -4 5 -1 9 4 9 6 0 9 10 8
23 -3 17 -16 26 -53 38 -56 19 -109 27 -141 22z m117 -37 l45 -14 -58 -1 c-60
-1 -118 -20 -149 -48 -14 -13 -13 -6 6 28 23 40 28 44 68 47 24 1 63 -4 88
-12z m50 -46 c0 -11 -22 -16 -101 -25 -38 -4 -63 -13 -75 -26 -18 -20 -44 -26
-44 -10 0 11 48 47 81 60 32 13 139 14 139 1z"/>
<path d="M1375 4520 c-4 -7 -1 -19 8 -27 19 -19 29 -3 12 20 -9 13 -15 15 -20
7z"/>
<path d="M819 4405 c-1 -5 0 -19 0 -31 1 -12 -7 -45 -18 -75 -24 -63 -24 -59
-12 -59 19 0 54 140 40 162 -5 7 -9 9 -10 3z"/>
<path d="M754 4205 c-9 -14 -19 -23 -23 -20 -4 2 -25 -15 -47 -38 l-39 -42 41
38 c22 20 43 35 45 32 3 -2 18 9 34 25 16 17 24 30 17 30 -6 0 -19 -11 -28
-25z"/>
<path d="M375 4101 c-9 -15 -10 -167 -1 -266 16 -190 30 -210 84 -128 36 56
93 118 145 157 40 31 41 30 52 -39 9 -55 56 -195 65 -195 4 0 -5 40 -21 89
-36 114 -51 211 -47 306 2 41 0 75 -4 75 -5 0 -8 -4 -8 -9 0 -12 -194 -5 -218
8 -25 13 -39 14 -47 2z"/>
<path d="M720 3610 c0 -5 5 -10 11 -10 5 0 7 5 4 10 -3 6 -8 10 -11 10 -2 0
-4 -4 -4 -10z"/>
<path d="M746 3553 c9 -21 18 -44 21 -50 3 -7 9 -13 13 -13 11 0 -32 99 -43
100 -4 0 0 -17 9 -37z"/>
</g>
</svg>
